<svg id="b2b9a59b-06a6-4ef0-ab77-0f095f7d467a" data-name="ChiuKongMinchoLogo-Dark" xmlns="http://www.w3.org/2000/svg" viewBox="0 0 1227.65 204.28"><defs><style>.f5d49cfd-6f42-457c-b26c-46d67529150d{fill:#fff;}</style></defs><path class="f5d49cfd-6f42-457c-b26c-46d67529150d" d="M578.05,316.69c-.14.79-.86,1.15-1.87,1.15H566.1v5.91c15.34,6.26,9.65,17.14,4.32,12.53-.36-3.31-2.23-7.35-4.32-10.51v33.12c-.07.5-2.23,2-5.55,2H559.4v-28A59.93,59.93,0,0,1,547.59,347l-.93-.87c5.68-7.7,9.72-18.21,12-28.3H548.38l-.57-2.08H559.4V304.67c-3.82.72-7.78,1.37-11.59,1.73l-.29-1c8.06-2.67,17.64-7.56,22.32-11.24l8,6.63c-.72.72-2.16.86-4.17.14-2.16.72-4.75,1.52-7.56,2.24v12.6h2.45l3.38-4.76S575.82,314.32,578.05,316.69Zm17.35-17.57c.36,10.59,1.16,19.44,2.74,26.86a117.51,117.51,0,0,0,8.71-16.56l8.5,4.61c-.43.79-1.44,1.22-3,.93a74.78,74.78,0,0,1-13.83,13c2.81,11.44,7.85,19.37,17,24.84l-.15.86c-3.38.72-5.61,3.39-6.41,7.35-9.14-7.56-12.67-21.25-14.11-40.54-1.22,17.93-6,31.39-26.07,40.68L568,359.9c22.54-14.26,20.81-34.78,20.81-65.24l9.22.86c-.15,1.08-.87,1.8-2.6,2.09Zm-15.12,28.09c-1.65,1.87-5.11,2.08-6.33-.08-.94-1.94.07-3.88,1.87-5.25A18.09,18.09,0,0,0,581,309.71l1.16.07C584.53,318.2,582.88,324.47,580.28,327.21Z" transform="translate(-69.64 -293.94)"/><path class="f5d49cfd-6f42-457c-b26c-46d67529150d" d="M666,335.49l4-5.12s4.61,3.53,7.34,6.05c-.21.79-.86,1.15-1.87,1.15H656.6v18.51h18.08l4.17-5.47s4.68,3.74,7.49,6.41c-.21.72-.93,1.08-1.94,1.08H620.74l-.64-2h29.45V337.57h-19.3l-.58-2.08Zm-36.58-35.36a21.81,21.81,0,0,1,1.22,4.32h18.87V293.94l9.5.86c-.07.94-.72,1.59-2.45,1.87v7.78h18.94l4-4.1,7.06,6.77c-.5.64-1.3.79-2.81.86a53,53,0,0,1-10.15,7.78l-.72-.51a83.11,83.11,0,0,0,2.88-8.71H631c.36,5.18-1.8,8.64-4.32,9.94-2.23,1.36-5.26.86-6.12-1.44s.72-4,2.73-5a10.57,10.57,0,0,0,5.19-9.87Zm17.93,17.14c-.29.79-.94,1.15-2.6,1-4.24,6.91-12.24,13.17-23,15.69l-.5-.86a35.54,35.54,0,0,0,17.07-19.59Zm12.53-4,2.3-3.6,6.41,4.17c-.79.94-2.81,1.37-5.19,1.52,3.24,5,11.67,9.21,21.75,10.94v.79a8.3,8.3,0,0,0-5.26,5.76c-8.85-3.81-15.55-9.79-18.36-17.49H647.24l-.65-2.09Z" transform="translate(-69.64 -293.94)"/><path class="f5d49cfd-6f42-457c-b26c-46d67529150d" d="M694.54,297.83l7.35,2.88h8.78L714,297l6.91,5.4a5.27,5.27,0,0,1-3,1.51v38.52c-.08.58-3.1,2.3-5.48,2.3h-1v-5.18H701v6.84c0,.51-2.08,2.23-5.33,2.23h-1.08V297.83Zm6.41,21h10.44V302.8H701Zm0,18.65h10.44V320.94H701Zm24-41.19,7.64,2.89h14.61l3.17-3.75,7.2,5.55a5.19,5.19,0,0,1-3,1.44v50c0,4.89-1.08,7.92-9.65,8.71-.29-2.23-.72-3.89-1.87-4.9s-3.1-1.87-6.84-2.44V352.7s8.28.57,9.93.57c1.44,0,1.8-.43,1.8-1.58V301.28H731.56v14.33h7l3-4.25s3.53,3,5.55,5.19c-.15.79-.86,1.15-1.8,1.15H731.56v6.91c0,2.6-.08,5.19-.29,7.71h7.2l3.17-4.39s3.6,3.16,5.69,5.32c-.15.8-.87,1.16-1.88,1.16h-14.4c-1.37,10.65-6,20.3-20.52,26.71l-.72-.79c13-9.15,15.19-20.88,15.19-35.64V296.31Z" transform="translate(-69.64 -293.94)"/><path class="f5d49cfd-6f42-457c-b26c-46d67529150d" d="M767.19,310.28l6.63,2.74h3.89v-7.13H764.17l-.58-2.09h14.12v-9.57l9.21.72c-.14,1-.72,1.65-2.52,2v6.84h4.54l3.74-5s4.4,3.53,7,6c-.22.79-.94,1.15-1.95,1.15H784.4V313H788l3.24-3.46,6.92,5.19a5,5,0,0,1-2.81,1.37v19.73c-.07.57-3.31,2-5.55,2h-1.08V335.2H784.4v8h5.33l3.53-4.61s3.74,3,6.26,5.26c1.52-5.91,1.88-12.39,1.88-19.23V297.18l7.63,2.88h10.66l3.24-3.89,7.41,5.69a5.4,5.4,0,0,1-3.24,1.51v49.18c0,4.83-1,7.71-9.36,8.5-.22-2.16-.65-3.75-1.73-4.75s-2.73-1.88-6.26-2.38v-1.08s7.49.58,9,.58c1.29,0,1.66-.51,1.66-1.59V302.15H807.88V311c17.13,2.88,12.89,13.69,7.2,10.08-1.3-2.95-4.4-6.33-7.2-8.64v15.34c17.28,4.32,12.24,15.48,6.55,11.31-.79-3.39-3.82-7.2-6.63-9.87-.43,12-3.09,23.91-16.92,32l-.86-.72a33.32,33.32,0,0,0,9.22-15.55,2.12,2.12,0,0,1-1.3.36H784.4V359c0,.43-2,2-5.47,2h-1.22V345.28H764.1l-.58-2.09h14.19v-8h-4.18v1.58c0,.65-2.74,2.09-5.4,2.09h-.94V310.28Zm21.53,4.83H773.53V323h15.19Zm0,9.94H773.53v8.06h15.19Z" transform="translate(-69.64 -293.94)"/><path class="f5d49cfd-6f42-457c-b26c-46d67529150d" d="M83.76,455.6c-.2.57-.72,1-1.78,1a89.7,89.7,0,0,1-4.08,10.23l1.78.67c-.15.43-.58.77-1.44.86v28.71a3.1,3.1,0,0,1-2.12.91h-.43V471.15a49.42,49.42,0,0,1-5.33,7.78l-.72-.44c3.7-5.95,7.44-15.17,9.6-24.19Zm21.79,26c-.14.68-.58,1-1.63,1.2v2.55h4.51l2-2.4s2.16,1.77,3.55,3.07c-.09.48-.57.72-1.25.72h-8.78v7.54c0,2.16-.48,3.45-4.47,3.79a2.38,2.38,0,0,0-1-1.68,10.18,10.18,0,0,0-3.89-.86v-.77s4.7.33,5.71.33c.82,0,1.06-.24,1.06-.91v-7.44H81.74l-.38-1.39h20v-4.27ZM96.09,479v-4.22H87.6v1.78c0,.24-1.15.76-2.21.76H85V462.36l2.84,1.35h8.25v-3.07H82.6l-.33-1.44H96.09v-4.8l4.32.43c-.09.67-.57,1.15-1.77,1.34v3h9l2.11-2.55s2.4,1.83,3.93,3.22c-.14.53-.62.77-1.29.77H98.64v3.07h8.16l1.44-1.63,3.36,2.54a3.53,3.53,0,0,1-1.82.91v10.28a4.56,4.56,0,0,1-2.21.62h-.34v-1.68H98.64v4.08l7.82-.38a22,22,0,0,0-2.83-1.68l.48-.53c9.94,1.73,9.12,7.1,6.39,6a13.86,13.86,0,0,0-2.79-2.83c-6,.67-13.54,1.53-23.38,2.49a1.69,1.69,0,0,1-1.29,1l-1-3.41C84.86,479.45,90,479.26,96.09,479Zm-4.36,14.45c-.63-1.68-2.69-3.89-4.23-5.18l.48-.39C96.29,489.87,94.41,495.05,91.73,493.42Zm4.36-24.91V465.1H87.6v3.41Zm-8.49,4.85h8.49V469.9H87.6Zm11-8.26v3.41h8.59V465.1Zm0,4.8v3.46h8.59V469.9Z" transform="translate(-69.64 -293.94)"/><path class="f5d49cfd-6f42-457c-b26c-46d67529150d" d="M124.6,482.43a1.55,1.55,0,0,1-1.68,1,36.39,36.39,0,0,1-4.36,10.66l-.82-.39a52.77,52.77,0,0,0,2.93-12.33Zm-2.68-19c1.1-2.54,2.44-6.05,3.55-9.12l4.22,1.58a1.68,1.68,0,0,1-1.77.87,66.06,66.06,0,0,1-5,7.39c3.31,2.74,1.72,5.81-.34,4.42-.53-2.16-2.78-4.8-4.7-6.29l.52-.43A15.6,15.6,0,0,1,121.92,463.42Zm10.84,15a11.37,11.37,0,0,0-.86-3.08l-3.74.72v21c0,.29-.92.91-2.12.91h-.38V476.57l-5.42.92a1.47,1.47,0,0,1-1.11,1l-1.25-3.22,4.52-.24a163.94,163.94,0,0,0,8.11-15.22l4,1.87c-.24.53-.86.82-1.92.68a114,114,0,0,1-8.73,12.57l7.63-.52a31.21,31.21,0,0,0-2.21-4l.67-.29C137.66,475.13,135.26,480.61,132.76,478.45ZM132.48,490c0-2.64-1.4-6.24-2.5-8.5l.62-.19C137.57,486.8,134.83,492.37,132.48,490Zm14.06-14.21c-.09.81-.62,1.15-1.63,1.29-.19,8.5-2.26,16.61-12.82,21l-.43-.72c9.17-4.7,10.85-13,10.47-22Zm3.55-20.64c-.09.62-.48,1.05-1.53,1.24v4.85H156l2.11-2.59s2.31,1.87,3.8,3.22c-.1.52-.53.76-1.2.76H148.17A68.42,68.42,0,0,1,143,471l11.95-.76a38.2,38.2,0,0,0-4.32-4.76l.63-.43c11.33,5.71,9.6,12.58,6.62,10.47a15.49,15.49,0,0,0-2.25-4.32c-4.47.76-10.23,1.63-17.67,2.64a1.63,1.63,0,0,1-1.15,1l-1.39-3.41,5.85-.29a74.34,74.34,0,0,0,3.46-8.5h-9.27l-.38-1.39H146v-6.53Zm4,20.54a1.42,1.42,0,0,1-1.44,1.15v16.71c0,.67.14.86,1.2.86h2.44c1.21,0,2.07,0,2.41-.05s.48-.14.62-.57c.29-.77.77-4.18,1.2-7h.67l.15,7.2c.86.34,1,.67,1,1.15,0,1.11-1.1,1.64-6,1.64h-3c-2.64,0-3.17-.77-3.17-2.6v-19Z" transform="translate(-69.64 -293.94)"/><path class="f5d49cfd-6f42-457c-b26c-46d67529150d" d="M187.1,458.19c-.43.38-.91.43-1.73.05a68.73,68.73,0,0,1-13.87,3.69v10.61H181l2.11-2.64s2.4,1.87,3.89,3.31c-.1.48-.58.72-1.25.72H171.5V487h9.6l2.21-2.74s2.5,2,4.13,3.41c-.15.53-.63.77-1.3.77H171.5v5.42c-.05.24-.72.92-2.26.92h-.33v-36L173,460.3a76.08,76.08,0,0,0,11.18-4.9Zm2.59-.77,3.17,1.68h11.43l1.39-1.78,3.74,2.79a4.11,4.11,0,0,1-2.11,1v26.16c0,2.21-.43,3.7-4.51,4.13a2.82,2.82,0,0,0-1.06-2,11.65,11.65,0,0,0-4.08-1.06v-.76s4.9.33,5.91.33,1.2-.29,1.2-1V460.54H192.24V497a2.38,2.38,0,0,1-2.16,1h-.39V457.42Z" transform="translate(-69.64 -293.94)"/><path class="f5d49cfd-6f42-457c-b26c-46d67529150d" d="M216.86,456.08l3,1.44h16.18l1.59-1.68,3.45,2.64a4.21,4.21,0,0,1-2.06,1v9.21c0,.34-1.3,1-2.11,1h-.39v-2.25H219.36v4c0,7.78-.2,17.91-5.38,25l-.82-.52c3.56-7.06,3.7-16.09,3.7-24.39V456.08Zm2.5,2.83v7h17.18v-7Zm1.72,14.73,3,1.4H229V468.8l4.17.52c-.14.68-.52,1.11-1.72,1.25V475h5.23l1.34-1.63,3.65,2.68a4,4,0,0,1-2.11.87v13.1c0,2.31-.34,3.56-3.27,3.89a3.06,3.06,0,0,0-.57-1.87,4.13,4.13,0,0,0-2.26-.91v-.82s2.31.24,3,.24.72-.24.72-.82V476.48h-5.71V497c0,.39-1.06,1-2,1H229v-21.5h-5.48v16.7a2.22,2.22,0,0,1-2.06,1h-.34v-20.5ZM248.54,459c-.14.68-.53,1.16-1.73,1.3v27.07c0,.44-1.05,1-2,1h-.53v-29.9Zm8.55-3.31c-.15.67-.63,1.15-1.78,1.3v36.86c0,2.21-.43,3.75-4.32,4.13a3.06,3.06,0,0,0-1.06-2,10.19,10.19,0,0,0-3.93-1v-.82s4.75.43,5.66.43,1.16-.29,1.16-1.1V455.16Z" transform="translate(-69.64 -293.94)"/><path class="f5d49cfd-6f42-457c-b26c-46d67529150d" d="M264.76,467.69l.24,1.39h1V455.31l2.88,1.39H276l1.44-1.92,3.65,2.78a3,3,0,0,1-2.16.82v10.7h.81l1.54-1.68,1.44,1.44V457.56l2.64,1.25h3.36v-4.37l3.74.39c-.09.62-.53,1.05-1.53,1.25v2.73h3.69v-4.37l3.75.39c-.1.62-.48,1.05-1.54,1.25v2.73h3l1.58-1.68,3.55,2.74a3.85,3.85,0,0,1-2.16,1v11.09a3.32,3.32,0,0,1-2.11.91h-.34V471.1H285.12v1.73c0,.24-1.06.81-2,.81h-.38v-2.83h-.19a25.32,25.32,0,0,1-3.12,2.93l-.77-.24a32.06,32.06,0,0,0,1.15-3H265.1a5.28,5.28,0,0,1-1,3.55c-.57.72-1.92,1-2.45.34a1.77,1.77,0,0,1,.63-2.16,6.13,6.13,0,0,0,1.63-4.57Zm1.25,5.52,2.69,1.3h7.44l1.2-1.54,3.41,2.5a3.24,3.24,0,0,1-1.73.77v18c0,2.16-.43,3.46-3.79,3.79a2.86,2.86,0,0,0-.72-1.82,6.18,6.18,0,0,0-2.93-.87v-.76s3.26.23,4,.23.92-.23.92-.81v-5.62h-8v8.83c0,.29-1,.92-2.07.92H266V473.21Zm5.09-12.38,2.78,1.25h2.69v-4h-8.25v11h2.78v-8.25ZM268.51,476v4.61h8V476Zm0,11h8V482h-8Zm4.7-23.42v5.56h3.36v-5.56Zm20.5,31.68a48.16,48.16,0,0,0,2.21-7l4.37,1.54a1.58,1.58,0,0,1-1.78.81A34.54,34.54,0,0,1,295,495.2H301l1.92-2.4s2.21,1.73,3.5,3a1.08,1.08,0,0,1-1.2.77H280.7l-.33-1.39Zm7.2-20.26,1.78-2.26s2.06,1.64,3.36,2.93c-.15.53-.58.77-1.25.77h-23l-.39-1.44ZM284,478l2.78,1.24h11.76l1.58-1.77,3.65,2.78a4.21,4.21,0,0,1-2.2,1v6.38c-.05.29-1.35.87-2.12.87H299V486.8H286.51v1.53a3,3,0,0,1-2.16.77H284V478Zm4.75-17.72h-3.6v4h3.6Zm-3.6,5.43v4h3.6v-4ZM299,485.41v-4.8H286.51v4.8Zm-10.51,9a14.19,14.19,0,0,0-1.92-5.86l.57-.28C293.57,491.84,290.78,496.54,288.53,494.43Zm6.09-30.19v-4h-3.69v4Zm-3.69,5.47h3.69v-4h-3.69Zm9.45-5.47v-4h-3.55v4Zm-3.55,5.47h3.55v-4h-3.55Z" transform="translate(-69.64 -293.94)"/><path class="f5d49cfd-6f42-457c-b26c-46d67529150d" d="M321.64,455.55a1.61,1.61,0,0,1-1.82.81c-.53,1-1.06,2.07-1.63,3h9.22l1.77-2.31a43.18,43.18,0,0,1,3.46,2.93c-.1.53-.58.77-1.2.77h-9.27c4.76,3.22,2.55,7,.43,5.28a12.11,12.11,0,0,0-2.2-5.28h-3.08a35.54,35.54,0,0,1-7.2,8.35l-.67-.57A47,47,0,0,0,317.76,454Zm18.25-.15a1.58,1.58,0,0,1-1.73.87c-.58,1.05-1.15,2.11-1.83,3.12H348l2.06-2.55s2.31,1.78,3.75,3.17c-.1.53-.58.77-1.25.77H340.75c5.28,3,3.22,7.15.86,5.47a12.05,12.05,0,0,0-3-5.47h-3.27a28.09,28.09,0,0,1-3.26,3.7l1.87.24c-.14.62-.48,1-1.58,1.24v1.83h11.28l1.44-1.59,3.31,2.55a3.07,3.07,0,0,1-1.77.81v3.8h2.11l1.87-2.6s2.11,1.92,3.41,3.22c-.15.53-.53.77-1.2.77h-6.19V481c-.05.34-1.35,1-2.21,1h-.39v-1.58H332.4v4.12h12.53l1.92-2.16s2.16,1.59,3.55,2.84c-.15.52-.58.76-1.25.76H332.4v4.18h15.17l2-2.5s2.36,1.78,3.84,3.17c-.14.53-.57.77-1.29.77H332.4v5.33c0,.43-1.06,1.06-2.07,1.06h-.48v-6.39H310.56l-.44-1.44h19.73v-4.18h-16l-.43-1.44h16.46v-4.12h-14l-.44-1.4h14.45v-4.22H310.08l-.44-1.39h20.21v-4.13H316.22l-.38-1.44h14v-3.55l1,.09A37,37,0,0,0,336,454Zm-7.49,13.83v4.13h11.66v-4.13Zm11.66,5.52H332.4V479h11.66Z" transform="translate(-69.64 -293.94)"/><path class="f5d49cfd-6f42-457c-b26c-46d67529150d" d="M364.36,472.3V459.58h-5.13l-.39-1.44h19.83l2-2.54s2.35,1.87,3.89,3.21c-.15.53-.58.77-1.25.77h-5.76V472.3h2.16l2.11-2.64s2.35,1.87,3.84,3.26a1.14,1.14,0,0,1-1.25.77h-6.86v23.09c0,.24-.87.92-2.16.92H375v-24h-8.06c-.1,8.4-1.15,18-8.64,24.53l-.72-.57c5.85-7,6.72-15.65,6.81-24h-6.28l-.39-1.39Zm2.55-12.72V472.3H375V459.58Zm35.43,22c-.34.48-.72.63-1.83.44-5.23,7.63-12.29,12.57-21.12,15.89l-.48-.92c8.06-3.84,14.59-9.17,19.34-17.47Zm-1.06-12c-.29.48-.72.63-1.87.39a44,44,0,0,1-17.57,12.81l-.53-.86a44.2,44.2,0,0,0,16-14.5ZM401,457.37c-.33.48-.72.58-1.77.39a48.31,48.31,0,0,1-15.32,12l-.57-.82a47.7,47.7,0,0,0,13.77-13.78Z" transform="translate(-69.64 -293.94)"/><path class="f5d49cfd-6f42-457c-b26c-46d67529150d" d="M419.9,463.13l2-2.45s2.3,1.78,3.65,3.12a1.12,1.12,0,0,1-1.2.72H406l-.39-1.39Zm-2.16,6.05,1.73-2.16s2,1.58,3.31,2.83c-.14.53-.57.72-1.25.72H408.14l-.38-1.39Zm-.24,6.1,1.83-2.26a42.72,42.72,0,0,1,3.4,2.93c-.09.53-.57.77-1.24.77H408.14l-.38-1.44Zm.19-18,1.92-2.5s2.21,1.78,3.6,3.07c-.09.53-.57.77-1.25.77H408.33l-.38-1.34ZM408,479.89l2.73,1.34h7.88l1.58-1.68,3.46,2.64a3.8,3.8,0,0,1-2,1v11.66c-.05.34-1.34,1-2.16,1H419v-2.6h-8.6v3.32c0,.28-1.05.86-2.11.86H408V479.89Zm2.49,2.73v9.17H419v-9.17Zm31.16-7,1.82-1.73,3.17,2.93a3,3,0,0,1-2,.53,32.93,32.93,0,0,1-7.49,11.57,33.7,33.7,0,0,0,13.39,6.43l-.1.48a3.11,3.11,0,0,0-2.64,2.26,32,32,0,0,1-12.43-7.54,38.67,38.67,0,0,1-14.74,7.54l-.43-.82A38.4,38.4,0,0,0,434,489a31,31,0,0,1-6-12h-3.6l-.43-1.39ZM428.35,455l3.07,1.44h6.87l1.44-1.58,3.12,2.78a2.91,2.91,0,0,1-1.64.62V468.8c0,.52.1.67,1,.67h2.31c1,0,1.82,0,2.11-.05s.48-.1.62-.53c.24-.72.72-3.36,1.11-5.85H449l.14,6c.82.33,1,.62,1,1.1,0,1.11-1.1,1.58-5.61,1.58H441.7c-2.55,0-3-.67-3-2.4V457.9h-7.78v2.78c0,4-.67,9.8-7.29,13.54l-.58-.67c4.66-3.89,5.33-8.55,5.33-12.87V455Zm.72,22a25.22,25.22,0,0,0,6.38,10.42,29.44,29.44,0,0,0,6.2-10.42Z" transform="translate(-69.64 -293.94)"/><path class="f5d49cfd-6f42-457c-b26c-46d67529150d" d="M469.2,463.52l2-2.55s2.3,1.83,3.79,3.17c-.15.53-.58.77-1.25.77H454l-.39-1.39Zm-2.88-6,2-2.5s2.25,1.78,3.69,3.12c-.14.53-.57.77-1.25.77H456.28l-.38-1.39Zm.62,12.09,1.92-2.35s2.11,1.68,3.46,3a1.1,1.1,0,0,1-1.2.76h-14.6l-.38-1.39Zm0,6.05,1.92-2.3s2.11,1.68,3.46,3a1.12,1.12,0,0,1-1.2.72h-14.6l-.38-1.39Zm-10.42,4.8,2.74,1.3h8.5l1.53-1.73,3.51,2.74a3.63,3.63,0,0,1-2.07.91v11.95c0,.29-1.34,1-2.11,1h-.38v-2H459v2.49c0,.29-1.06.87-2.11.87h-.39V480.46Zm2.5,2.69v10h9.22v-10Zm29.09-28.37c-.14.77-.62,1.3-1.92,1.49V469.9h5.95l2.11-2.74s2.41,1.92,3.85,3.36c-.1.53-.53.77-1.2.77H486.19v25.64c0,.53-1.06,1.15-2,1.15h-.57V471.29h-9.79l-.39-1.39H483.6V454.3Z" transform="translate(-69.64 -293.94)"/><path class="f5d49cfd-6f42-457c-b26c-46d67529150d" d="M504.76,477.1a2.74,2.74,0,0,1,5.48,0,2.74,2.74,0,1,1-5.48,0Z" transform="translate(-69.64 -293.94)"/><path class="f5d49cfd-6f42-457c-b26c-46d67529150d" d="M524.44,482.57a1.59,1.59,0,0,1-1.68.92,35.37,35.37,0,0,1-4.89,10.75l-.82-.43a46.14,46.14,0,0,0,3.41-12.39Zm-3.12-19c1.35-2.54,3-6.14,4.28-9.31l4,1.68a1.61,1.61,0,0,1-1.78.77,74.16,74.16,0,0,1-5.61,7.49c3.69,2.78,2.16,6.05,0,4.61-.57-2.12-3-4.85-5-6.34l.53-.43A15.61,15.61,0,0,1,521.32,463.56Zm11.57,14.74a11.4,11.4,0,0,0-.62-2.54l-4,.62v20.69c0,.29-.91.91-2.11.91h-.38V476.77l-5.86.76a1.56,1.56,0,0,1-1.15,1l-1.34-3.31,4.51-.1c3.12-4.8,6.91-11.28,9.31-15.93l3.94,1.72a1.76,1.76,0,0,1-2,.68,128.52,128.52,0,0,1-9.89,13.48l8.5-.38a28.57,28.57,0,0,0-2.36-4.22l.58-.29C537.88,475,535.39,480.51,532.89,478.3Zm.58,12.24a28.61,28.61,0,0,0-2.88-9.07l.62-.19C538.51,487.28,536,492.89,533.47,490.54ZM560.59,460c-.34.39-1.2.44-2.26.05-2.49.87-5.71,1.73-9.16,2.55v19.68h6.57V467.45l4.08.43c-.09.63-.53,1.06-1.53,1.2v16.57c0,.33-1.11.91-2,.91h-.53v-2.93h-6.57v9.7c0,1.05.24,1.48,1.82,1.48h3.22c1.53,0,2.73,0,3.26-.09s.58-.14.72-.43a37.74,37.74,0,0,0,1.25-5.38h.62l.19,5.52c1,.34,1.25.58,1.25,1.11,0,1.24-1.44,1.67-7.25,1.67h-3.64c-3.12,0-3.94-1-3.94-3.16V483.63h-6.24v3.31c0,.39-1.06,1-1.92,1H538V467.45l4,.48c-.09.58-.52,1-1.58,1.15v13.16h6.24V463.08a100.61,100.61,0,0,1-11.52,1.73l-.24-.86a96.06,96.06,0,0,0,11.76-2.74v-6.38l4.22.53c-.09.67-.52,1.15-1.72,1.34v3.74a58.39,58.39,0,0,0,8.16-3.21Z" transform="translate(-69.64 -293.94)"/><path class="f5d49cfd-6f42-457c-b26c-46d67529150d" d="M587.33,483.15a43.25,43.25,0,0,0,9.4-18.43H566l-.43-1.4H586v-9l4.37.43c-.1.67-.63,1.15-1.78,1.3v7.29h14.16l2.26-2.78s2.54,2,4.13,3.46c-.15.48-.58.72-1.25.72h-7.87a45.08,45.08,0,0,1-11,20.06,50,50,0,0,0,20.69,10.66l-.14.53a3.19,3.19,0,0,0-2.88,2.16,46.65,46.65,0,0,1-19.35-11.72C582,491.36,575,495.2,566,497.94l-.38-.73c8.54-3.12,15.22-7.34,20.26-12.48a40.43,40.43,0,0,1-8-14.49l-3.7,5.95a1.06,1.06,0,0,1-.19,1.49l-2.93-3.12a81.09,81.09,0,0,0,6.53-5.86l.77-2.69,2,.77-1.82,2.3A35.94,35.94,0,0,0,587.33,483.15Z" transform="translate(-69.64 -293.94)"/><path class="f5d49cfd-6f42-457c-b26c-46d67529150d" d="M638.35,454.73c-.14.67-.53,1.2-1.78,1.39v9.41h13.92l2.26-2.83s2.59,2,4.18,3.5c-.1.53-.63.77-1.3.77h-18c4.46,8.45,12.53,16.18,20,19.68l-.1.48a3.23,3.23,0,0,0-2.74,2.21c-7.29-4.46-14.25-12.53-18.29-22.37v19.49h4.95l2.21-2.73s2.4,2,3.93,3.36c-.14.52-.57.76-1.25.76h-9.84v9.08c0,.43-1.1,1.1-2.11,1.1H634V487.85H623.52l-.39-1.39H634V468.65a50.73,50.73,0,0,1-20.26,21l-.57-.72a53.88,53.88,0,0,0,18.38-22H614.2l-.43-1.44H634V454.25Z" transform="translate(-69.64 -293.94)"/><path class="f5d49cfd-6f42-457c-b26c-46d67529150d" d="M692.25,473.74c-.09.67-.62,1.15-1.77,1.3v3.31H697l2-2.54a41.85,41.85,0,0,1,3.84,3.21c-.14.53-.53.77-1.2.77H690.48v6.48h8.25l2.12-2.64s2.44,2,4,3.31c-.14.53-.58.77-1.25.77H662.35l-.43-1.44h13.72v-6.48H665.42l-.43-1.44h10.65v-5.09l4.32.48c-.09.67-.62,1.15-1.77,1.3v3.31h9.74v-5Zm-11.76,17.71c-.28.48-1,.58-2.11.29A46.56,46.56,0,0,1,662.92,498l-.33-.82c5.57-1.72,11.52-5.18,14.25-8ZM668.16,455.6,671,457h24.34l1.44-1.68,3.36,2.54a3.37,3.37,0,0,1-1.83.91v14.88a3.26,3.26,0,0,1-2.21,1h-.38v-2.06h-25v1.73c0,.29-1.06.91-2.16.91h-.43V455.6Zm13.72,8.4v-5.67H670.75V464Zm-11.13,7.15h11.13v-5.76H670.75Zm17.18,15.12v-6.48h-9.74v6.48Zm-3.5-27.94V464h11.28v-5.67Zm0,7.06v5.76h11.28v-5.76Zm15.74,32.11c-2.35-2.21-6.72-4.75-12.52-6.77l.28-.81C707.33,493.62,703.2,499.76,700.17,497.5Z" transform="translate(-69.64 -293.94)"/><path class="f5d49cfd-6f42-457c-b26c-46d67529150d" d="M712.36,467.69l.24,1.39h1V455.31l2.88,1.39h7.16l1.44-1.92,3.65,2.78a3,3,0,0,1-2.16.82v10.7h.81l1.54-1.68,1.44,1.44V457.56l2.64,1.25h3.36v-4.37l3.74.39c-.09.62-.53,1.05-1.53,1.25v2.73h3.69v-4.37l3.75.39c-.1.62-.48,1.05-1.54,1.25v2.73h3l1.58-1.68,3.55,2.74a3.85,3.85,0,0,1-2.16,1v11.09a3.35,3.35,0,0,1-2.11.91H748V471.1H732.72v1.73c0,.24-1.06.81-2,.81h-.38v-2.83h-.2a24,24,0,0,1-3.12,2.93l-.76-.24a32.06,32.06,0,0,0,1.15-3H712.7a5.28,5.28,0,0,1-1,3.55c-.57.72-1.92,1-2.45.34a1.77,1.77,0,0,1,.63-2.16,6.13,6.13,0,0,0,1.63-4.57Zm1.25,5.52,2.69,1.3h7.44l1.2-1.54,3.41,2.5a3.24,3.24,0,0,1-1.73.77v18c0,2.16-.43,3.46-3.79,3.79a2.86,2.86,0,0,0-.72-1.82,6.18,6.18,0,0,0-2.93-.87v-.76s3.26.23,4,.23.91-.23.91-.81v-5.62h-8v8.83c0,.29-1,.92-2.07.92h-.43V473.21Zm5.09-12.38,2.78,1.25h2.69v-4h-8.25v11h2.78v-8.25ZM716.11,476v4.61h8V476Zm0,11h8V482h-8Zm4.7-23.42v5.56h3.36v-5.56Zm20.5,31.68a48.16,48.16,0,0,0,2.21-7l4.37,1.54a1.58,1.58,0,0,1-1.78.81,34.54,34.54,0,0,1-3.55,4.66h6.05l1.92-2.4s2.21,1.73,3.5,3a1.08,1.08,0,0,1-1.2.77H728.3L728,495.2Zm7.2-20.26,1.78-2.26s2.06,1.64,3.36,2.93c-.15.53-.58.77-1.25.77h-23l-.39-1.44Zm-16.94,3,2.78,1.24h11.76l1.58-1.77,3.65,2.78a4.21,4.21,0,0,1-2.21,1v6.38c0,.29-1.34.87-2.11.87h-.38V486.8H734.11v1.53a3,3,0,0,1-2.16.77h-.38V478Zm4.75-17.72h-3.6v4h3.6Zm-3.6,5.43v4h3.6v-4Zm13.92,19.73v-4.8H734.11v4.8Zm-10.51,9a14.19,14.19,0,0,0-1.92-5.86l.57-.28C741.17,491.84,738.38,496.54,736.13,494.43Zm6.09-30.19v-4h-3.69v4Zm-3.69,5.47h3.69v-4h-3.69Zm9.45-5.47v-4h-3.55v4Zm-3.55,5.47H748v-4h-3.55Z" transform="translate(-69.64 -293.94)"/><path class="f5d49cfd-6f42-457c-b26c-46d67529150d" d="M780.62,474.61a36.17,36.17,0,0,0,6.1-5.14H766.65l-.38-1.44h21.17l1.92-1.92,3.5,3.17a2.76,2.76,0,0,1-1.92.52,53.28,53.28,0,0,1-9.12,4.95l.48.05c-.14.67-.62,1.05-1.73,1.24v4h14.26l2.26-2.74s2.49,2,4.08,3.36c-.15.53-.63.77-1.3.77h-19.3V493.9c0,2.21-.53,3.75-4.89,4.13a2.53,2.53,0,0,0-1.2-1.82,11.51,11.51,0,0,0-4.66-1.06v-.77s5.76.39,6.87.39,1.29-.29,1.29-1.06V481.42H758l-.43-1.39H778v-5.76Zm-17.23-16.33a23.36,23.36,0,0,1,.48,2.79H778v-6.91l4.37.48c-.1.67-.62,1.15-1.78,1.29v5.14h15.36l1.88-1.87,3.4,3.31c-.38.33-.91.38-1.87.43a29.79,29.79,0,0,1-5.57,4.46l-.67-.33a39.54,39.54,0,0,0,2.69-4.56H763.92a8,8,0,0,1-2.36,5.9c-1,1-2.64,1.25-3.26.29s.05-1.73.91-2.4c1.78-1.3,3.46-4.66,3.31-8Z" transform="translate(-69.64 -293.94)"/><path class="f5d49cfd-6f42-457c-b26c-46d67529150d" d="M809.13,463.56c1.15-2.59,2.5-6.19,3.6-9.31l4.27,1.59a1.72,1.72,0,0,1-1.82.86,73,73,0,0,1-5.14,7.49c3.27,2.73,1.64,5.81-.38,4.41-.53-2.11-2.64-4.7-4.46-6.19l.52-.43A14.39,14.39,0,0,1,809.13,463.56ZM820,478.06a10,10,0,0,0-.53-2.49l-3.84.67v20.88c0,.24-.86.86-2.11.86h-.38V476.62l-5.28.82a1.59,1.59,0,0,1-1.2,1l-1.3-3.27,4.37-.09a166.78,166.78,0,0,0,8.4-15.27l4,1.78a1.54,1.54,0,0,1-1.87.72A127.73,127.73,0,0,1,811.1,475l8-.38a24.71,24.71,0,0,0-2.26-4.37l.63-.29C825,474.84,822.43,480.32,820,478.06Zm-7.82,3.6a1.59,1.59,0,0,1-1.64,1,36.92,36.92,0,0,1-4.36,10.66l-.82-.39a54.35,54.35,0,0,0,2.88-12.29ZM819.4,488a19.86,19.86,0,0,0-2.11-7.3l.63-.24C824.4,485.26,821.61,490.21,819.4,488Zm25.49-26,3.51,2.59a4.18,4.18,0,0,1-2,1v8.54a3.26,3.26,0,0,1-2.21.92h-.38v-1.68H827l-.14,3.6,2,1h16.13l1.2-1.49,3.36,2.45a2.91,2.91,0,0,1-1.77.86v14.59c0,2.17-.34,3.41-3.31,3.75a3,3,0,0,0-.63-1.83,4.11,4.11,0,0,0-2.45-.81v-.82s2.64.24,3.27.24.77-.24.77-.86v-6.34h-4.33v9a2.27,2.27,0,0,1-2,.86h-.29v-9.84h-4v9.17a2.47,2.47,0,0,1-2,.87h-.29v-10h-3.94v9.46c0,.29-1,.86-2,.86h-.39V482.19a26.42,26.42,0,0,1-6.72,14.11l-.72-.52c5-7.21,5.67-15.85,5.67-23.77v-9.79l3,1.49h16.32l-.48,0Zm-1-4.37L846,455s2.4,1.87,3.79,3.26c-.09.53-.53.77-1.2.77H822.29l-.39-1.39Zm-.05,14.26v-6.87H827v6.87Zm-11.28,14.3v-6.86h-3.94v6.86Zm6.29,0v-6.86h-4v6.86Zm6.58-6.86h-4.33v6.86h4.33Z" transform="translate(-69.64 -293.94)"/><path class="f5d49cfd-6f42-457c-b26c-46d67529150d" d="M860.16,477.1V466.59h-6.39l-.38-1.44h6.77V454.3l4.27.43c-.15.72-.63,1.2-1.73,1.35v9.07H864l1.92-2.4a43,43,0,0,1,3.36,3.07c-.15.53-.53.77-1.2.77H862.7v9.6l5.57-2.11.29.72L862.7,478v15.88c0,2.26-.43,3.7-4.18,4.13a3,3,0,0,0-.91-2,8.46,8.46,0,0,0-3.6-1v-.77s4.27.34,5.14.34,1-.25,1-1V479.31l-5,2.59a1.53,1.53,0,0,1-.86,1.2l-1.68-3.45C854.11,479.26,856.84,478.3,860.16,477.1Zm16.13-4.61V464h-7.64l-.43-1.39h8.07v-7.78l4.22.48c-.1.67-.48,1.15-1.68,1.34v19.88c-.1,9.45-2.54,16.61-11.43,21.55l-.62-.67a19.89,19.89,0,0,0,9.07-14.59c-2,1.15-4.65,2.59-7.77,4.22a1.44,1.44,0,0,1-.91,1.1l-1.54-3.31c1.87-.43,6-1.73,10.37-3.17a43.29,43.29,0,0,0,.29-5.13v-2.6H868.7l-.43-1.39Zm12-17.13c-.1.67-.48,1.15-1.68,1.34v5.86h5l2-2.5s2.25,1.78,3.64,3.12c-.09.53-.57.77-1.25.77h-9.45v8.59h4.65l1.92-2.4s2.12,1.68,3.51,3.07c-.14.48-.58.72-1.25.72h-8.83v9.7H892l2.11-2.64s2.31,1.92,3.75,3.26a1.1,1.1,0,0,1-1.2.77H886.56v11.91c0,.48-1.11,1.1-2,1.1H884V454.88Z" transform="translate(-69.64 -293.94)"/><path class="f5d49cfd-6f42-457c-b26c-46d67529150d" d="M904.36,477.1a2.74,2.74,0,0,1,5.48,0,2.74,2.74,0,1,1-5.48,0Z" transform="translate(-69.64 -293.94)"/><path class="f5d49cfd-6f42-457c-b26c-46d67529150d" d="M937.63,462V454.3l4.32.43c-.1.72-.58,1.2-1.78,1.39V462H954l2.21-2.69s2.49,1.87,4.08,3.36c-.15.53-.58.77-1.25.77H940.17v8.3h9l2.06-1.72,3.12,3c-.43.39-1,.53-2.21.58a42.1,42.1,0,0,1-10.8,13.34,53.43,53.43,0,0,0,19.69,8.31l0,.48a3.13,3.13,0,0,0-2.74,2.16,49,49,0,0,1-18.82-9.41c-5.8,4.27-13.05,7.53-22,9.6l-.43-.91A59.62,59.62,0,0,0,937.77,487a35.68,35.68,0,0,1-9.21-13.82h-7.49l-.43-1.45h17v-8.3H918.19l-.43-1.44Zm-7.92,11.19a32.75,32.75,0,0,0,9.79,12.38,38.65,38.65,0,0,0,9.55-12.38Z" transform="translate(-69.64 -293.94)"/><path class="f5d49cfd-6f42-457c-b26c-46d67529150d" d="M971.8,476.48V466.16h-6.24l-.38-1.4h6.62V454.35l4.32.43c-.14.67-.62,1.15-1.77,1.3v8.68h1.49l1.82-2.4a33.48,33.48,0,0,1,3.46,3c-.15.53-.53.77-1.2.77h-5.57v9.26l6.34-2.59.28.67-6.62,3.89v16.42c0,2.3-.43,3.74-4.18,4.22a3.27,3.27,0,0,0-1-2.06,7.6,7.6,0,0,0-3.6-1v-.82s4.27.34,5.14.34,1-.24,1-1V478.83l-4.27,2.35a1.7,1.7,0,0,1-.81,1.25l-2-3.31C966.14,478.64,968.73,477.68,971.8,476.48Zm15.94-1.11c.29-1.63.53-3.36.67-5.08h-4.94l-.38-1.45H1001l2-2.49a43.1,43.1,0,0,1,3.74,3.17,1.13,1.13,0,0,1-1.2.77H991.34c-.19,1.77-.48,3.45-.81,5.08h12.91l2.11-2.54s2.31,1.82,3.75,3.21c-.1.53-.53.73-1.25.73H990.24a37.83,37.83,0,0,1-1.2,4.12h11.76l1.82-1.68,3.08,2.79c-.39.43-.87.57-2,.62a28.21,28.21,0,0,1-6.67,8.07,37.54,37.54,0,0,0,12.38,4.7l0,.53a2.67,2.67,0,0,0-2.25,2.11,33.33,33.33,0,0,1-11.91-5.9A38.58,38.58,0,0,1,982.27,498l-.43-.81a38.84,38.84,0,0,0,11.85-6.39,23.49,23.49,0,0,1-5.37-7.77,32,32,0,0,1-12.15,15.07l-.57-.67c6.52-5.57,10.13-12.53,11.85-20.64h-7.58l-.38-1.4Zm.53-17.9a81.67,81.67,0,0,0,14.93-3.31l2.83,2.68c-.33.39-1.15.39-2.11,0a105.76,105.76,0,0,1-16.27,1.77h-.44A25.5,25.5,0,0,1,979.68,469l-.68-.58a31.77,31.77,0,0,0,6.1-12.05Zm.91,24.86a20,20,0,0,0,6.05,7.11,25.16,25.16,0,0,0,5.38-7.11Zm4.27-16.13a13.73,13.73,0,0,0-2.06-6.67l.67-.29C998.25,463.61,995.57,468.36,993.45,466.2Zm13,1c-.77-2.64-3.75-6.14-6-8.16l.57-.43C1011,463,1009.2,469,1006.42,467.16Z" transform="translate(-69.64 -293.94)"/><path class="f5d49cfd-6f42-457c-b26c-46d67529150d" d="M1049.71,458.14l2.31-2.88s2.64,2.06,4.32,3.5c-.1.53-.63.77-1.3.77H1040.4a57.7,57.7,0,0,1-5.09,7.2l2.35.87c-.19.43-.67.72-1.49.86V497a3,3,0,0,1-2.11.87h-.48V468.65a70.84,70.84,0,0,1-20.45,15.22l-.43-.67c9.84-5.86,19.35-14.93,24-23.67H1014l-.39-1.39Zm4.23,23.95c-2.69-4.17-10.28-9.74-15.61-12.77l.53-.57C1058,475.66,1057.92,483.82,1053.94,482.09Z" transform="translate(-69.64 -293.94)"/><path class="f5d49cfd-6f42-457c-b26c-46d67529150d" d="M1064.4,456.56l2.88,1.39h31.1l1.4-1.83,3.69,2.88a4.24,4.24,0,0,1-2.06,1v33.8c0,2.16-.53,3.74-5.19,4.22a2.89,2.89,0,0,0-1.25-1.82,16.61,16.61,0,0,0-5.18-1.11v-.76s6.29.48,7.59.48c1.1,0,1.44-.39,1.44-1.3V459.39H1067v37.54c0,.38-.91,1.05-2.07,1.05h-.52V456.56Zm25.29,8.88,2.12-2.55s2.35,1.83,3.74,3.22c-.14.53-.53.77-1.2.77H1071l-.38-1.44Zm-15.5,6.09,2.78,1.3h11.38l1.44-1.63,3.36,2.54a3.75,3.75,0,0,1-1.82.91V488c0,.33-1.35,1-2.21,1h-.34v-4h-12v4.13a3.09,3.09,0,0,1-2.16.77h-.43V471.53Zm14.59,12.1v-9.41h-12v9.41Z" transform="translate(-69.64 -293.94)"/><path class="f5d49cfd-6f42-457c-b26c-46d67529150d" d="M1132.22,474.61a36.17,36.17,0,0,0,6.1-5.14h-20.07l-.38-1.44H1139l1.92-1.92,3.5,3.17a2.76,2.76,0,0,1-1.92.52,53.28,53.28,0,0,1-9.12,4.95l.48.05c-.14.67-.62,1.05-1.73,1.24v4h14.26l2.26-2.74s2.49,2,4.08,3.36c-.15.53-.63.77-1.3.77h-19.3V493.9c0,2.21-.52,3.75-4.89,4.13a2.53,2.53,0,0,0-1.2-1.82,11.51,11.51,0,0,0-4.66-1.06v-.77s5.76.39,6.87.39,1.29-.29,1.29-1.06V481.42h-20l-.43-1.39h20.4v-5.76ZM1115,458.28a23.36,23.36,0,0,1,.48,2.79h14.11v-6.91l4.37.48c-.1.67-.62,1.15-1.78,1.29v5.14h15.37l1.87-1.87,3.41,3.31a3.07,3.07,0,0,1-1.88.43,30,30,0,0,1-5.56,4.46l-.68-.33a39.54,39.54,0,0,0,2.69-4.56h-31.87a8,8,0,0,1-2.36,5.9c-1.05,1-2.64,1.25-3.26.29s0-1.73.91-2.4c1.78-1.3,3.46-4.66,3.31-8Z" transform="translate(-69.64 -293.94)"/><path class="f5d49cfd-6f42-457c-b26c-46d67529150d" d="M1163.56,472.3V459.58h-5.13l-.39-1.44h19.83l2-2.54s2.35,1.87,3.89,3.21c-.15.53-.58.77-1.25.77h-5.76V472.3h2.16l2.11-2.64s2.35,1.87,3.84,3.26a1.14,1.14,0,0,1-1.25.77h-6.86v23.09c0,.24-.87.92-2.16.92h-.39v-24h-8.06c-.1,8.4-1.15,18-8.64,24.53l-.72-.57c5.85-7,6.72-15.65,6.81-24h-6.28l-.39-1.39Zm2.55-12.72V472.3h8.06V459.58Zm35.43,22c-.34.48-.72.63-1.83.44-5.23,7.63-12.29,12.57-21.12,15.89l-.48-.92c8.06-3.84,14.59-9.17,19.35-17.47Zm-1.06-12c-.29.48-.72.63-1.87.39A44,44,0,0,1,1181,482.81l-.53-.86a44.2,44.2,0,0,0,16-14.5Zm-.29-12.24c-.33.48-.72.58-1.77.39a48.31,48.31,0,0,1-15.32,12l-.57-.82a47.7,47.7,0,0,0,13.77-13.78Z" transform="translate(-69.64 -293.94)"/><path class="f5d49cfd-6f42-457c-b26c-46d67529150d" d="M1210.75,456.17l3.07,1.54h26l1.73-1.87,3.6,3.12a3.84,3.84,0,0,1-2.11.86c-.48,11.28-.15,28.23,3.4,32.79.39.52.58.48.77-.19.58-1.88,1.06-3.61,1.49-5.33l.58.09-.77,7.68c.77,1.54,1,2.45.48,2.88-1.11.77-2.79-.38-4-2.16-4.65-5.9-4.8-22.13-4.65-36.48h-27.08V468c0,8.78-.62,21.07-8,30l-.76-.48c5.47-8.93,6.19-19.63,6.19-29.47V456.17Zm27.41,8a2.26,2.26,0,0,1-2.16-.1c-2.31.48-5.09,1-8.16,1.4v5.76h5.9l1.39-1.4,3,2.31a2.6,2.6,0,0,1-1.63.77v10.94a3,3,0,0,1-2.07.91h-.33v-2.25h-6.29v8.73l7.68-.52a33.19,33.19,0,0,0-3.7-4.52l.58-.38c10.27,5.42,8.26,11.91,5.47,9.79a14.3,14.3,0,0,0-1.73-3.89c-5.18.87-11.9,1.83-20.93,3.08a1.64,1.64,0,0,1-1.15,1.05l-1.58-3.74c2.64-.05,7.29-.34,12.86-.67v-8.93h-6.09v2.35c0,.24-1.06.82-2,.82h-.39V470l2.65,1.25h5.85v-5.48c-3.26.39-6.72.68-10,.77l-.19-.91a103.92,103.92,0,0,0,20.21-4.22ZM1225.34,481v-8.4h-6.09V481Zm8.79-8.4h-6.29V481h6.29Z" transform="translate(-69.64 -293.94)"/><path class="f5d49cfd-6f42-457c-b26c-46d67529150d" d="M1270.75,466c-.1.53-.53.77-1.2.77h-6.67V471c9,3.84,7,9.36,4.22,7.44a20.43,20.43,0,0,0-4.22-6.34v25c0,.44-1.11,1.11-2,1.11h-.58V474.41a41.07,41.07,0,0,1-7.15,13l-.77-.62c3.65-5.66,5.91-12.77,7.2-20h-6.43l-.38-1.44h7.53V454.06l4.23.48c-.1.72-.48,1.15-1.68,1.34v9.41h2.25l2-2.49A43.32,43.32,0,0,1,1270.75,466Zm8.5-9.4c-.44,1.2-.92,2.35-1.44,3.5H1289l1.92-1.78,3.07,2.93c-.38.39-1,.48-2.11.53a35.86,35.86,0,0,1-7.44,10.32,41.07,41.07,0,0,0,12.82,6l-.1.48a2.77,2.77,0,0,0-2.3,2.07,38.36,38.36,0,0,1-12-7.06,40.42,40.42,0,0,1-9,5.9l2.26,1H1289l1.34-1.63,3.17,2.45a3,3,0,0,1-1.77.81v14.65a2.8,2.8,0,0,1-2.21.91h-.39v-2.93h-13.63v2.4c0,.24-.82.86-2.11.86h-.39V479.84a54.67,54.67,0,0,1-6.38,2.45l-.48-.82a44.14,44.14,0,0,0,15.17-9.36,34.27,34.27,0,0,1-5.86-7.73,30.47,30.47,0,0,1-6.24,7.54l-.72-.48c3.36-4,6.53-10.37,8.31-17.19l4.22,1.44A1.76,1.76,0,0,1,1279.25,456.56Zm9.93,36.72V481.9h-13.63v11.38Zm-6.43-22.56a36.66,36.66,0,0,0,6.24-9.27h-11.86l-1,1.87A32.85,32.85,0,0,0,1282.75,470.72Z" transform="translate(-69.64 -293.94)"/></svg>